<svg width="155" height="156" viewBox="0 0 155 156" fill="none" xmlns="http://www.w3.org/2000/svg">
<g opacity="0.45" clip-path="url(#clip0_139_4420)">
<path d="M118.947 78.6814L105.052 100.586C105.052 100.586 106.11 103.354 107.237 101.646C107.373 101.441 106.452 100.996 107.407 100.313C111.231 97.5792 117.991 92.7607 121.098 88.9333C125.195 83.9099 125.366 77.1777 125.366 77.1777L118.947 78.6814Z" fill="#CAE5FF"/>
<path d="M112.87 98.4676L107.817 95.1528L111.675 89.8901L116.728 93.1708L112.87 98.4676Z" fill="white"/>
<path d="M103.618 53.3588L117.889 72.0516L108.807 93.0339C108.807 93.0339 114.816 98.6383 116.113 97.2372C126.731 85.8234 130.418 71.3339 130.418 71.3339L112.153 41.4665C112.153 41.4665 110.07 36.7506 105.905 37.5366C97.5066 39.1086 102.594 51.3426 103.618 53.3588Z" fill="#0E4F8C"/>
<path d="M92.8634 85.5502L76.544 85.1743C76.544 85.1743 74.1883 95.1187 73.9835 103.525C73.6762 115.486 73.4713 127.31 73.7103 134.657C73.4372 135.819 73.3348 137.015 73.4031 138.177C73.9152 147.028 76.1343 194.016 76.1343 194.016C76.1343 194.016 83.2015 194.836 83.3039 193.982C84.9768 179.903 86.9912 157.177 87.0253 148.531C87.0594 145.832 87.1619 143.132 87.2984 140.603C88.4251 136.263 92.8634 85.5502 92.8634 85.5502Z" fill="#0B3F70"/>
<path d="M111.88 195.588L106.725 143.645C106.725 143.611 106.759 143.611 106.759 143.611L104.779 92.2483L82.8943 90.7788C82.8943 90.7788 84.2599 93.9227 87.1961 107.455C87.1961 107.455 90.7126 134.862 94.4339 149.01C94.5022 149.318 94.6046 149.557 94.6729 149.83C95.7654 163.944 101.945 198.117 101.945 198.117L111.88 195.588Z" fill="#0B3F70"/>
<path d="M45.8513 56.7077C45.8513 56.7077 39.2279 51.4792 29.7709 40.6463C26.5616 36.9898 28.1321 40.9539 28.6784 45.5331C29.2246 50.1123 38.1354 59.2024 47.8997 61.7654C57.6641 64.3283 45.8513 56.7077 45.8513 56.7077Z" fill="#CAE5FF"/>
<path d="M30.522 43.5171C30.522 43.5171 32.0242 38.5962 31.239 37.3659C30.4538 36.1357 27.2786 31.864 27.2786 31.864L26.3569 30.8388C26.3569 30.8388 24.7181 31.2489 26.869 34.1195C29.0198 36.99 27.2445 36.1699 27.2445 36.1699L24.3425 34.3587L20.587 32.4108L19.0507 31.3173C19.0507 31.3173 18.2313 30.6338 17.8899 30.6338C16.9339 30.668 17.3095 31.4198 17.3095 31.4198L23.011 36.1699L16.6267 33.2651C16.6267 33.2651 15.739 33.0259 15.4659 33.436C15.1927 33.8119 15.4659 33.9486 15.4659 33.9486L21.9527 39.0062L18.4703 37.8785C18.4703 37.8785 17.6168 37.6735 17.3095 38.0494C17.0022 38.4595 16.8998 38.562 16.8998 38.562L29.6685 44.7473L30.522 43.5171Z" fill="#CAE5FF"/>
<path d="M30.3171 50.0439L27.1761 45.9431L32.468 42.1841L35.609 46.2849L30.3171 50.0439Z" fill="white"/>
<path d="M85.4549 43.8243C85.4549 43.8243 86.3084 47.6859 71.6278 63.2689C63.4339 71.9831 58.8932 76.1864 54.8304 74.2385C46.5342 70.2744 26.9373 51.7184 26.9373 51.7184L34.619 42.97C34.619 42.97 53.1917 57.9037 56.0595 59.4757C57.2544 60.125 64.663 49.5313 72.2082 38.8009C73.5738 36.8188 84.4648 42.765 85.4549 43.8243Z" fill="#0E4F8C"/>
<path d="M73.2324 40.3389L84.0551 34.5636L92.1807 32.7524L96.7556 35.1787C96.7556 35.1787 106.281 40.6465 107.237 40.6465C108.193 40.6465 106.93 91.6329 106.93 91.6329L82.5188 92.4531L73.6421 93.1707L73.2324 40.3389Z" fill="white"/>
<path d="M80.5044 107.831L80.2995 45.1913L83.7819 34.871C79.3094 35.4178 74.8028 35.8621 71.5936 39.792L70.9108 101.816L80.5044 107.831ZM94.2973 34.5635L97.9846 41.3298L97.2676 83.8071L100.204 108.241L109.422 104.619L111.095 47.0025L108.227 37.4682L94.2973 34.5635Z" fill="#0E4F8C"/>
<path d="M79.0023 71.881L75.2809 47.2079L77.7732 45.3968L75.076 43.2097L77.4318 36.0675L84.0893 33.9487L81.119 45.1917L79.6509 85.0377L79.0023 71.881Z" fill="#0B3F70"/>
<path d="M84.533 39.3481C84.533 39.3481 80.8116 55.5804 84.0891 85.3795C84.294 87.2932 86.8546 88.3525 86.8546 88.3525L89.3469 85.277C89.3469 85.277 86.718 59.647 86.4107 41.0226C86.3425 38.6989 84.4306 41.5694 84.533 39.3481Z" fill="#55ADFF"/>
<path d="M85.8646 37.5022L88.6641 41.1929L94.4681 34.8708V33.8115L85.8646 37.5022ZM84.2258 33.5039L82.1432 41.4663L84.9086 38.1515L84.2258 33.5039Z" fill="#F2F2F2"/>
<path d="M95.3898 28.6519C95.1167 29.9846 94.6046 32.7868 94.0583 33.9829C93.2048 35.8282 85.6596 37.4686 84.533 37.7419C83.3722 38.0153 84.8061 32.1717 84.8061 30.8389C84.8061 29.8137 85.4889 30.1555 84.6695 28.686H95.3898V28.6519Z" fill="#B1D8FC"/>
<path d="M82.5529 25.7126C82.348 26.8404 83.1674 27.9339 84.3624 28.1048L94.0584 29.6084C95.2533 29.7793 96.38 29.0274 96.5507 27.8656L98.8381 14.1279C99.043 13.0002 98.2236 11.9067 97.0287 11.7358L87.3326 10.2663C86.1377 10.0955 85.011 10.8473 84.8403 12.0092L82.5529 25.7126Z" fill="#CAE5FF"/>
<path d="M84.3623 15.4609C84.3623 15.4609 83.2698 13.9231 83.1674 13.0688C83.0991 12.6245 83.7819 11.1551 84.9769 10.7108C86.1718 10.2666 86.8546 11.531 86.8546 11.531C86.8546 11.531 84.9769 12.1803 84.8403 12.522C84.7037 12.8637 84.3623 15.4609 84.3623 15.4609Z" fill="#55ADFF"/>
<path d="M98.804 20.4502C98.804 20.4502 101.16 15.3926 101.16 13.8206C101.16 12.2145 101.16 11.1209 99.2137 10.6425C96.3117 9.92487 96.1751 10.54 94.8778 9.44644C93.5804 8.38707 91.3613 5.89243 90.5077 5.5507C89.0738 4.96975 86.6839 5.10644 86.1377 7.73778C85.728 9.68565 84.3624 9.95904 84.3965 10.0616C84.4648 10.3008 84.9769 10.6425 85.8304 11.2234C88.3227 12.9321 89.8932 13.4447 92.0441 13.2397C94.195 13.0346 98.2236 12.522 98.4284 14.0598C98.6333 15.5976 97.7115 20.0401 97.8139 20.3819C97.9163 20.7578 98.4284 20.6553 98.804 20.4502Z" fill="#55ADFF"/>
<path d="M95.0826 24.1065C95.0143 24.4824 95.2874 24.8583 95.6971 24.8925L97.7797 25.2001C98.1894 25.2684 98.565 24.995 98.5991 24.6191L99.2136 20.9626C99.2819 20.5867 99.0088 20.2108 98.5991 20.1766L96.5165 19.869C96.1068 19.8007 95.7313 20.0741 95.6971 20.45L95.0826 24.1065ZM82.587 22.1928C82.5187 22.5687 82.7918 22.9446 83.2015 22.9788L85.2841 23.2863C85.6938 23.3547 86.0694 23.0813 86.1035 22.7054L86.7181 19.0489C86.7863 18.673 86.5132 18.2971 86.1035 18.2629L84.0209 17.9553C83.6112 17.887 83.2698 18.1604 83.2015 18.5363L82.587 22.1928Z" fill="#CAE5FF"/>
<path d="M97.6773 21.5093C97.6773 21.5093 96.7555 26.9086 96.4824 28.7198C96.2093 30.3601 94.9119 33.8116 85.2842 32.3422C79.5826 31.4879 80.4703 27.4896 80.6751 26.191C80.8459 25.2 82.5188 22.3636 83.2357 21.8852C83.2699 21.8852 82.8602 24.1064 82.8602 24.1064C82.8602 24.1064 84.3965 22.1244 87.1278 22.5345C91.4978 23.2179 92.0782 25.8151 94.0243 26.0543C95.5265 26.2594 97.0287 24.1064 97.6773 21.5093Z" fill="#55ADFF"/>
<path d="M88.3226 26.362L85.3182 25.9177C84.9085 25.8494 84.6354 25.5077 84.7037 25.1318L84.772 24.7217L89.2103 25.4051L89.142 25.8152C89.1079 26.157 88.7323 26.4303 88.3226 26.362Z" fill="#CAE5FF"/>
<path d="M84.499 37.7417L85.8646 37.5024L86.7864 40.6122L84.9769 41.6032L83.5771 41.159L84.499 37.7417Z" fill="#55ADFF"/>
<path d="M94.2291 33.2993C93.9219 34.222 97.6091 41.7401 97.6091 41.7401L97.3018 81.2102L103.925 47.6179L101.843 45.0207L104.13 42.8336L99.9648 35.008L94.2291 33.2993Z" fill="#0B3F70"/>
</g>
<defs>
<clipPath id="clip0_139_4420">
<rect width="155" height="217" fill="white" transform="translate(0 -6)"/>
</clipPath>
</defs>
</svg>
