<svg width="158" height="156" viewBox="0 0 158 156" fill="none" xmlns="http://www.w3.org/2000/svg">
<g opacity="0.45">
<path d="M152.819 118.736L155.322 139.249C155.546 141.042 154.276 142.649 152.52 142.873L124.579 146.348C122.823 146.572 121.217 145.302 120.993 143.508L118.49 122.995L152.819 118.736Z" fill="#0E8C51"/>
<path d="M118.378 121.912L119.013 127.218C119.499 131.141 123.047 133.943 126.932 133.458L127.53 133.383L127.866 135.998C127.978 136.858 128.725 137.456 129.547 137.343C130.369 137.231 130.967 136.484 130.855 135.625L130.518 133.009L144.078 131.328L144.414 133.943C144.526 134.803 145.274 135.401 146.095 135.288C146.917 135.176 147.515 134.429 147.403 133.57L147.067 130.954H147.141C151.026 130.468 153.79 126.881 153.305 122.958L152.67 117.652L143.742 118.773L143.331 115.261C143.144 113.729 141.762 112.646 140.231 112.832L129.248 114.215C127.717 114.402 126.633 115.822 126.82 117.354L127.231 120.866L118.378 121.912ZM144.937 133.607C144.863 133.084 145.236 132.598 145.759 132.523C146.282 132.449 146.768 132.822 146.842 133.383C146.917 133.906 146.544 134.392 146.021 134.466C145.46 134.541 144.975 134.168 144.937 133.607ZM129.846 118.549C129.734 117.69 130.369 116.868 131.228 116.756L138.998 115.784C139.857 115.672 140.642 116.307 140.754 117.167L140.978 119.035L130.07 120.38L129.846 118.549ZM128.352 135.699C128.277 135.176 128.651 134.691 129.174 134.616C129.697 134.541 130.182 134.915 130.257 135.475C130.332 135.998 129.958 136.484 129.435 136.559C128.875 136.596 128.426 136.223 128.352 135.699Z" fill="#55FFB0"/>
<path d="M67.7246 155.801C67.2764 143.209 67.127 105.621 74.5232 87.7981C74.5232 87.7981 97.011 76.5515 91.9307 99.8294L77.5863 154.269C79.7529 174.595 72.3193 191.372 69.1815 200.788L68.8079 205.944L65.7822 204.861L65.8195 203.403L64.5868 204.45L54.7998 201.012L56.0699 199.891C62.2335 202.395 65.8569 199.63 65.8569 199.63L67.762 156.474C67.762 156.25 67.7246 156.063 67.7246 155.801Z" fill="#0B7041"/>
<path d="M4.59462 14.2652C4.59462 14.2652 4.85611 14.1905 5.64056 14.3399V14.1905C5.60321 13.5179 6.20089 13.2563 6.42502 13.2563C6.64915 13.2563 8.44219 14.0784 8.59161 14.1905C8.70367 14.2652 10.0484 16.0587 10.5714 16.6939L12.0656 17.3664L10.6088 20.3182L9.48813 19.7204L5.78998 19.272C5.56585 19.2346 5.00552 19.0105 4.96817 18.7863C4.93081 18.5994 5.00553 18.2632 5.08024 18.1137C4.74404 18.039 4.48256 17.8895 4.4452 17.5906C4.40785 17.1796 4.66933 16.918 4.78139 16.8433C4.48255 16.7312 4.25842 16.5444 4.22107 16.2829C4.22107 15.9466 4.40785 15.7598 4.51991 15.6477C4.25843 15.4982 4.10901 15.3114 4.10901 15.0498C4.10901 14.452 4.59462 14.2652 4.59462 14.2652Z" fill="#7BDBAE"/>
<path d="M11.6921 16.8057L9.78699 20.2432L11.2812 21.0278L13.1489 17.5903L11.6921 16.8057Z" fill="#F7F7F7"/>
<path d="M48.5988 30.1451L72.2445 36.7213C77.3995 38.029 81.658 39.8599 81.6206 45.1282C81.5832 49.5746 77.6983 54.1704 72.618 52.2275C62.4201 48.2668 55.2853 44.5304 43.7053 38.2906C43.6679 38.2906 43.6679 38.2532 43.6306 38.2532L10.4594 20.8788L12.4392 17.105L48.5988 30.1451ZM99.8125 158.529C95.6287 146.685 84.3475 110.852 86.1406 91.5721C86.1406 91.5721 104.258 74.0109 106.312 97.7372L110.496 154.157C116.473 160.995 114.754 191.036 114.568 200.975L115.763 206.019L112.551 205.907L112.14 204.487L111.28 205.87L100.933 205.533L101.792 204.076C108.404 204.599 111.056 200.863 111.056 200.863L100.074 159.127C99.9993 158.94 99.8872 158.753 99.8125 158.529Z" fill="#0E8C51"/>
<path d="M86.4767 28.8749C86.4767 28.8749 87.9709 35.0027 89.5398 40.3832L75.4196 46.4735C76.1294 43.7459 76.2788 35.1895 73.776 35.6753L79.9769 25.0638L84.0113 24.877L86.4767 28.8749Z" fill="#74CEA4"/>
<path d="M97.4217 88.4707C97.6832 88.7322 97.9821 88.9191 98.2809 89.1432C100.335 90.4884 102.763 90.3389 105.677 90.1894C106.611 90.1521 107.582 90.1521 108.628 90.1521C112.401 90.2642 116.921 91.0115 122.524 94.7479C121.217 91.3851 117.07 87.9476 112.588 85.0332C110.421 83.576 108.18 82.3056 106.125 81.1846C102.614 79.2417 99.663 77.9339 98.6545 77.4856C98.4303 77.3735 98.3182 77.3361 98.3182 77.3361L97.4217 88.4707ZM75.8679 42.1763C68.2101 49.3129 67.1642 64.707 84.3475 90.1894L75.8679 42.1763Z" fill="#0B7041"/>
<path d="M71.8336 96.5417C75.5318 98.5593 102.427 99.8671 106.126 96.2427C104.22 76.3275 106.2 62.4654 107.396 53.2737C108.479 44.4184 108.815 39.8599 104.22 38.4401L87.6348 32.8354L76.9139 44.1942L75.8306 41.8403C68.4343 57.197 75.4197 79.1299 71.8336 96.5417Z" fill="#F7F7F7"/>
<path d="M93.7236 60.5969C91.5571 69.3028 96.2264 78.756 90.1376 86.0047C85.8791 91.273 78.9684 91.161 72.6554 91.0862C72.4687 92.9544 72.2445 94.7479 71.871 96.5041C75.5691 98.5217 102.465 99.8295 106.163 96.2051C104.258 76.29 106.238 62.4278 107.433 53.2362C107.732 50.9196 107.956 48.9019 108.068 47.1458C101.269 48.8272 95.1431 54.3571 93.7236 60.5969ZM87.6348 32.7979L76.9139 44.194C76.9139 44.194 81.6206 50.5086 82.5171 51.4053L87.6348 32.7979ZM74.5605 48.0799L76.9139 44.194L75.8306 41.84L74.5605 48.0799Z" fill="#F2F2F2"/>
<path d="M91.0341 71.9559C99.2522 83.4641 117.78 86.2291 123.085 96.2054C123.869 78.3826 106.088 71.9933 106.088 71.9933C107.246 57.9069 108.591 51.144 109.002 45.9503C109.226 42.8865 108.89 39.8599 106.051 38.8137L87.6721 32.8354C87.6721 32.8354 87.8216 33.0596 87.8216 33.1344C83.7499 47.7812 83.8993 61.9796 91.0341 71.9559Z" fill="#0E8C51"/>
<path d="M91.1088 71.5449C88.2698 62.2785 88.8301 57.7948 90.3243 54.7683L87.448 53.2737L90.0255 51.8912C86.925 43.7832 87.7842 34.1058 87.8589 32.9102C83.7499 47.5943 83.7872 62.428 91.1088 71.5449Z" fill="#0B7041"/>
<path d="M76.2788 48.5282L75.5691 46.9589L76.9886 44.8291L78.3707 46.8094L77.0259 48.6029C76.615 61.0452 83.2642 75.991 104.631 78.7933L109.226 85.2947L102.651 88.1717C83.7872 82.7913 78.0345 69.9006 76.4656 60.1858L76.4283 60.0737C75.457 54.0207 76.1668 49.2755 76.2788 48.5282Z" fill="#55FFB0"/>
<path d="M72.6928 13.7793L70.1153 17.7399L68.8078 21.7379L69.1814 22.7094L65.9689 28.8371L68.3969 29.9581L69.8164 37.2441C69.8164 37.6177 70.1153 37.9167 70.4888 37.954C73.0663 38.1782 80.7988 37.8793 82.7039 30.7427C84.3102 24.727 84.7211 21.5884 84.7211 21.5884C84.7211 21.5884 84.1234 15.9838 72.6928 13.7793Z" fill="#7BDBAE"/>
<path d="M79.2299 26.035C77.661 25.3625 77.2874 22.1491 77.1006 19.4215C77.0259 18.4127 76.2041 17.5907 75.1955 17.628L72.0577 18.3753C66.2303 19.4589 67.5004 8.88478 73.1784 7.16602C73.1784 7.16602 72.6554 8.32431 77.2127 10.4541C79.5287 11.5376 83.1521 12.397 85.8417 13.1069C88.4192 13.7795 90.0254 16.3576 89.5398 19.0105L87.2612 31.266C87.2612 31.266 81.5085 29.4725 83.563 25.1009C85.5428 20.7666 79.5287 18.8611 79.2299 26.035Z" fill="#0E8C51"/>
<path d="M135.561 118.25C135.561 118.25 135.3 118.101 134.851 117.465L134.739 117.577C134.291 118.101 133.693 117.839 133.544 117.69C133.395 117.54 132.647 115.672 132.61 115.485C132.573 115.336 132.797 113.131 132.909 112.309L132.274 110.777L135.337 109.656L135.748 110.889L138.101 113.804C138.251 113.991 138.475 114.514 138.325 114.738C138.213 114.887 137.915 115.074 137.802 115.186C137.989 115.485 138.064 115.784 137.915 116.008C137.69 116.344 137.279 116.344 137.167 116.307C137.317 116.606 137.354 116.905 137.167 117.092C136.981 117.316 136.682 117.353 136.495 117.353C136.57 117.652 136.57 117.876 136.383 118.063C136.047 118.437 135.561 118.25 135.561 118.25Z" fill="#7BDBAE"/>
<path d="M132.162 111.45L135.86 110.291L135.337 108.722L131.639 109.843L132.162 111.45Z" fill="#F7F7F7"/>
<path d="M100.896 42.064C103.922 38.8507 109.898 38.2902 112.214 43.2223C116.921 53.2359 119.499 60.933 123.608 73.4874V73.5621L135.748 109.32L131.751 110.628L114.53 75.9534V75.9161L101.942 54.7305C99.1028 50.1721 97.2724 45.8752 100.896 42.064Z" fill="#0E8C51"/>
</g>
</svg>
