<svg width="166" height="156" viewBox="0 0 166 156" fill="none" xmlns="http://www.w3.org/2000/svg">
<g opacity="0.8">
<path d="M34.875 124.553C36.2808 123.554 37.5736 122.398 38.1698 122.059C38.4208 121.921 39.199 121.745 39.4187 121.676C40.0714 121.481 41.1132 121.28 41.565 120.771L43.498 118.648C44.4143 117.606 45.613 117.26 46.6485 118.177C47.7719 119.17 47.4392 120.583 46.3221 121.588L44.9979 123.095C44.1068 123.899 43.6612 125.03 43.1654 126.123C42.1613 128.353 39.8831 130.03 37.9376 131.204C36.7138 131.939 34.8624 131.418 32.4336 130.589C31.2412 130.18 29.5154 129.194 31.0028 128.635C32.2517 128.17 36.0046 129.182 37.6614 125.721C37.743 125.551 37.9188 125.099 37.7493 124.942C37.2473 124.471 36.1364 125.539 35.3959 125.878C34.3541 126.355 33.5194 126.192 33.2621 125.809C32.9859 125.407 33.8708 125.269 34.875 124.553Z" fill="#FABEAF"/>
<path d="M87.6926 48.6193C87.6926 48.6193 84.5924 85.8667 73.4653 98.4353C66.7627 106.01 50.3638 119 46.5669 121.977C46.0837 122.354 45.4059 122.373 44.9038 122.021C44.5837 121.795 44.2198 121.519 43.906 121.242C43.5859 120.96 43.2156 120.551 42.883 120.162C42.3307 119.515 42.3558 118.554 42.9332 117.932C47.1882 113.303 63.882 94.9556 65.9154 90.1316C68.2438 84.5979 72.254 51.9295 75.938 47.1998C79.6219 42.4575 86.6822 41.4336 87.6926 48.6193Z" fill="#FF7755"/>
<path d="M73.641 110.15L83.1301 43.4435L108.717 39.926L122.028 109.672L73.641 110.15ZM93.4225 213.519L93.3974 221.038C93.3911 222.57 93.5982 224.09 94.0124 225.56L94.6651 227.878C95.1986 229.781 93.774 231.665 91.7971 231.659C86.6822 231.64 77.9337 231.653 75.6806 231.659C75.3104 231.659 74.9526 231.408 74.9213 231.043C74.733 228.851 81.0653 227.375 85.8413 225.529C89.475 224.122 89.2804 217.583 88.8348 213.764C88.6654 212.319 89.8704 211.094 91.3138 211.214C92.5062 211.314 93.4288 212.319 93.4225 213.519ZM128.592 211.408L131.178 220.007C131.291 220.391 131.461 220.749 131.686 221.075L133.519 223.801C134.686 225.535 133.845 227.897 131.85 228.506C131.85 228.506 128.147 229.806 124.337 231.062C120.434 232.344 115.52 231.276 115.52 230.239C115.52 227.947 117.654 229.768 121.231 227.375C122.43 226.571 123.666 225.736 124.77 224.869C127.846 222.451 125.16 216.333 123.277 212.885C122.599 211.647 123.321 210.108 124.701 209.813L125.593 209.625C126.898 209.355 128.203 210.127 128.592 211.408Z" fill="#FABEAF"/>
<path d="M102.152 110.797L73.7916 108.416C73.7916 108.416 70.936 129.075 78.1031 166.467C81.4669 184.004 88.4708 217.514 88.4708 217.514C90.2092 218.274 91.9727 218.462 93.7676 218.016C93.7676 218.016 94.3011 203.237 94.6274 187.314C94.9412 172.051 95.0228 155.738 95.9956 150.399C97.9787 139.495 102.152 110.797 102.152 110.797Z" fill="#701F0B"/>
<path d="M96.2968 111.155C93.3659 126.883 86.8265 150.4 99.4284 172.491C112.024 194.581 125.26 217.552 125.26 217.552C126.967 217.621 128.511 217.005 129.948 215.912C129.948 215.912 127.739 205.9 124.544 194.205C120.892 180.826 116.267 165.091 117.584 156.888C120.057 141.512 122.894 121.035 122.034 111.086C121.168 101.136 97.8343 102.889 96.2968 111.155Z" fill="#701F0B"/>
<path d="M72.6619 108.454L83.13 43.4435L108.723 39.926L122.473 108.573C122.535 108.879 122.536 109.195 122.475 109.501C122.415 109.808 122.294 110.099 122.12 110.358C121.946 110.618 121.722 110.84 121.462 111.012C121.202 111.184 120.91 111.303 120.603 111.362C115.84 112.266 104.349 114.151 91.4832 114.151C81.8811 114.151 76.4839 112.285 74.03 111.098C73.5473 110.864 73.1532 110.48 72.9066 110.004C72.66 109.527 72.5742 108.983 72.6619 108.454Z" fill="#F2F2F2"/>
<path d="M123.314 133.616C123.704 131.939 123.917 130.212 124.137 129.565C124.231 129.295 124.701 128.648 124.821 128.447C125.185 127.869 125.831 127.027 125.831 126.349L125.881 123.479C125.881 122.09 126.553 121.042 127.933 121.042C129.433 121.042 130.117 122.323 129.942 123.818V125.828C129.804 127.021 130.218 128.164 130.569 129.314C131.285 131.65 130.689 134.414 130.004 136.587C129.578 137.95 127.839 138.786 125.473 139.766C124.312 140.249 122.36 140.651 123.107 139.251C123.735 138.076 127.218 136.355 126.176 132.655C126.126 132.473 125.963 132.015 125.731 132.008C125.04 131.99 124.915 133.522 124.582 134.27C124.118 135.319 123.383 135.746 122.932 135.633C122.461 135.507 123.032 134.816 123.314 133.616Z" fill="#FABEAF"/>
<path d="M100.728 43.9777C100.728 48.6635 101.581 53.299 103.175 57.7021C106.301 66.3136 110.995 82.5944 108.202 96.9406C104.192 117.599 99.0268 125.947 105.717 130.765C112.407 135.576 125.235 127.549 125.605 124.867C125.975 122.191 123.107 89.2964 119.863 75.0444C116.612 60.7924 107.512 40.3032 107.512 40.3032L103.658 40.7178C102.854 40.8023 102.109 41.1822 101.567 41.7843C101.026 42.3864 100.727 43.1678 100.728 43.9777Z" fill="#FF7755"/>
<path d="M112.752 41.6972C112.752 41.6972 135.044 71.6899 135 88.4794C134.975 98.5984 131.26 119.194 130.381 123.943C130.268 124.546 129.779 125.011 129.164 125.074C128.774 125.118 128.316 125.149 127.902 125.149C127.482 125.149 126.929 125.086 126.421 125.017C126.014 124.958 125.643 124.751 125.378 124.436C125.113 124.121 124.973 123.72 124.984 123.309C125.116 117.021 125.517 92.2105 123.848 87.242C121.934 81.545 103.357 54.3978 102.993 48.4055C102.623 42.4195 107.248 36.9738 112.752 41.6972ZM90.0713 42.4886C90.0713 42.4886 85.6342 52.0863 87.1781 65.8798C88.7282 79.6732 92.3117 121.675 79.7725 128.019C75.7999 130.029 66.7313 121.135 66.7313 117.831C66.7313 114.527 69.7563 103.485 72.6243 93.4416C75.4924 83.398 82.4021 43.5376 82.4021 43.5376L90.0713 42.4886Z" fill="#FF7755"/>
<path d="M93.6421 12.7349C99.3532 12.7349 101.487 16.8051 101.594 24.3299C101.638 27.1502 100.37 29.939 99.3469 31.7229C98.5875 33.0482 98.3804 34.6185 98.8135 36.082L100.069 40.3281C100.922 44.2664 99.0519 46.4334 96.2905 47.2186C94.9224 47.608 93.2844 47.3065 92.092 46.5339C90.6736 45.6168 90.5544 43.6383 90.818 41.9675L91.1443 40.7552C91.5836 39.1221 90.636 37.3634 88.9854 37.0053C84.5861 36.0443 83.9585 31.4528 82.7786 24.3299C81.5486 16.9056 87.9311 12.7349 93.6421 12.7349Z" fill="#FABEAF"/>
<path d="M80.3436 9.4312L83.6196 10.4299C84.8245 10.7942 86.1048 10.8068 87.316 10.455L93.8555 8.55811C97.8156 8.55811 104.361 10.7942 103.533 16.5164L102.805 20.5614C102.516 22.1757 101.167 23.388 99.5289 23.5262C99.3783 24.0852 98.8699 24.4746 98.2925 24.4746C97.5833 24.4746 97.0123 23.903 97.0123 23.1933C97.0123 21.3654 95.732 19.814 93.9559 19.412C91.7719 18.9221 89.4436 18.8027 87.0023 19.4622C82.4585 20.6871 77.6638 17.8668 77.2119 13.1748C77.1805 12.8796 77.168 12.5781 77.168 12.2703C77.1617 10.3734 78.7244 8.98523 80.3436 9.4312Z" fill="#701F0B"/>
<path d="M98.4495 24.4683C98.4495 26.2144 99.0959 27.6277 100.778 27.6277C102.46 27.6277 103.533 25.2283 103.533 23.4821C103.533 21.736 102.453 21.3088 100.778 21.3088C99.0959 21.3088 98.4495 22.7284 98.4495 24.4683Z" fill="#FABEAF"/>
<path d="M99.1398 32.1311C99.1398 32.1311 94.8722 37.9977 89.5691 37.2063C89.5691 37.2063 90.6737 37.7339 90.9373 38.5882C90.9373 38.5882 95.9767 38.2176 99.1398 32.1311Z" fill="#E89E8B"/>
</g>
</svg>
